<?xml version="1.0" encoding="UTF-8" standalone="no"?>
<!-- Created with Inkscape (http://www.inkscape.org/) -->

<svg
   xmlns:dc="http://purl.org/dc/elements/1.1/"
   xmlns:cc="http://creativecommons.org/ns#"
   xmlns:rdf="http://www.w3.org/1999/02/22-rdf-syntax-ns#"
   xmlns:svg="http://www.w3.org/2000/svg"
   xmlns="http://www.w3.org/2000/svg"
   xmlns:sodipodi="http://sodipodi.sourceforge.net/DTD/sodipodi-0.dtd"
   xmlns:inkscape="http://www.inkscape.org/namespaces/inkscape"
   width="512"
   height="512"
   viewBox="0 0 135.46666 135.46667"
   version="1.1"
   id="svg3690"
   sodipodi:docname="LogoSystem.svg"
   inkscape:version="0.92.2 5c3e80d, 2017-08-06">
  <defs
     id="defs3684">
    <inkscape:perspective
       sodipodi:type="inkscape:persp3d"
       inkscape:vp_x="-5.2242357 : 66.6993 : 1"
       inkscape:vp_y="0 : 1000 : 0"
       inkscape:vp_z="130.24242 : 66.6993 : 1"
       inkscape:persp3d-origin="62.509094 : 44.121522 : 1"
       id="perspective4908" />
    <marker
       inkscape:stockid="Arrow1Lstart"
       orient="auto"
       refY="0.0"
       refX="0.0"
       id="Arrow1Lstart"
       style="overflow:visible"
       inkscape:isstock="true">
      <path
         id="path4509"
         d="M 0.0,0.0 L 5.0,-5.0 L -12.5,0.0 L 5.0,5.0 L 0.0,0.0 z "
         style="fill-rule:evenodd;stroke:#ffffff;stroke-width:1pt;stroke-opacity:1;fill:#85003a;fill-opacity:1"
         transform="scale(0.8) translate(12.5,0)" />
    </marker>
  </defs>
  <sodipodi:namedview
     id="base"
     pagecolor="#ffffff"
     bordercolor="#666666"
     borderopacity="1.0"
     inkscape:pageopacity="0.0"
     inkscape:pageshadow="2"
     inkscape:zoom="0.98994949"
     inkscape:cx="200.72567"
     inkscape:cy="252.74541"
     inkscape:document-units="mm"
     inkscape:current-layer="layer1"
     showgrid="true"
     units="px"
     inkscape:pagecheckerboard="true"
     borderlayer="false"
     showguides="true"
     inkscape:guide-bbox="true"
     inkscape:window-width="1600"
     inkscape:window-height="842"
     inkscape:window-x="0"
     inkscape:window-y="30"
     inkscape:window-maximized="1">
    <inkscape:grid
       type="xygrid"
       id="grid4906" />
  </sodipodi:namedview>
  <metadata
     id="metadata3687">
    <rdf:RDF>
      <cc:Work
         rdf:about="">
        <dc:format>image/svg+xml</dc:format>
        <dc:type
           rdf:resource="http://purl.org/dc/dcmitype/StillImage" />
        <dc:title></dc:title>
      </cc:Work>
    </rdf:RDF>
  </metadata>
  <g
     inkscape:label="Layer 1"
     inkscape:groupmode="layer"
     id="layer1"
     transform="translate(0,-161.53332)">
    <circle
       style="fill:#85003a;fill-opacity:1;fill-rule:evenodd;stroke:#ffffff;stroke-width:2.06695223;stroke-linecap:butt;stroke-linejoin:miter;stroke-miterlimit:4;stroke-dasharray:4.13390452, 4.13390452;stroke-dashoffset:0;stroke-opacity:0.92156863"
       id="path4499"
       cx="67.752831"
       cy="229.51443"
       r="65.639526" />
    <path
       style="fill:#ffffff;fill-opacity:1;stroke:#ffffff;stroke-width:11.54905415;stroke-miterlimit:4;stroke-dasharray:none;stroke-dashoffset:0;stroke-opacity:0.54901961"
       d="M 385.29492,67.804688 250.63477,141.22852 113.80859,71.925781 142.0293,222.68555 110.12305,254.74414 v 86.55859 l 51.07617,6.63282 V 178.9668 h 57.9375 c 21.26065,0 37.31221,4.82814 48.1543,14.48437 10.92679,9.57153 16.38867,23.63151 16.38867,42.18164 0,18.71954 -5.46188,32.86402 -16.38867,42.43555 -10.84209,9.57153 -26.89365,14.35742 -48.1543,14.35742 h -32.27344 v 60.53125 l 69.03125,134.68164 62.3457,-131.30859 V 178.9668 h 34.5586 l 11.71679,22.10547 z M 186.86328,200.05664 v 71.2793 h 32.27344 c 11.94324,0 21.17507,-3.09202 27.69726,-9.27539 6.5222,-6.18338 9.78321,-14.99272 9.78321,-26.42774 0,-11.35031 -3.26101,-20.1174 -9.78321,-26.30078 -6.52219,-6.18338 -15.75402,-9.27539 -27.69726,-9.27539 z m 156.2793,9.91016 v 135.66601 l 66.25781,-10.65625 z m 43.65625,33.14843 46.64062,87.99415 3.47071,-0.5586 V 290.5 Z M 84.457031,280.53516 33.835938,331.39844 84.457031,337.9707 Z M 461.8125,314.04688 v 12.49804 l 11.29688,-1.8164 z"
       transform="matrix(0.26458333,0,0,0.26458333,0,161.53332)"
       id="path4544"
       inkscape:connector-curvature="0" />
  </g>
</svg>
